<?xml version="1.0" encoding="utf-8"?>
<!-- Generator: Adobe Illustrator 16.0.0, SVG Export Plug-In . SVG Version: 6.00 Build 0)  -->
<!DOCTYPE svg PUBLIC "-//W3C//DTD SVG 1.1//EN" "http://www.w3.org/Graphics/SVG/1.1/DTD/svg11.dtd">
<svg version="1.1" id="Layer_1" xmlns="http://www.w3.org/2000/svg" xmlns:xlink="http://www.w3.org/1999/xlink" x="0px" y="0px"
	 width="500px" height="450px" viewBox="0 0 500 450" enable-background="new 0 0 500 450" xml:space="preserve">
<g>
	<polygon fill="#E6E7E8" points="60.112,329.852 10.873,300.27 10.9,29.663 60.112,57.534 	"/>
	<polygon fill="#E6E7E8" points="134.747,317.67 99.365,296.205 99.365,81.686 134.747,100.994 	"/>
	<polygon fill="#E6E7E8" points="222.674,427.924 173.584,398.336 173.46,124.219 222.674,149.528 	"/>
	<polygon fill="#E6E7E8" points="10.873,80.98 10.873,22.632 222.394,149.442 197.168,193.691 	"/>
</g>
<g>
	<polygon fill="#E6E7E8" points="295.755,400.854 246.01,427.909 246.01,149.59 298.494,121.919 	"/>
	<polygon fill="#E6E7E8" points="487.998,22.09 487.998,80.79 297.221,179.99 246.01,149.444 	"/>
	<polygon fill="#E6E7E8" points="487.998,253.312 487.998,300.079 265.342,417.364 246.01,380.665 	"/>
	<polygon fill="#E6E7E8" points="437.423,290.757 487.998,290.757 487.998,129.301 436.809,157.317 	"/>
	<polygon fill="#E6E7E8" points="343.487,267.499 343.487,209.269 451.94,148.964 476.706,193.83 	"/>
</g>
</svg>
