<?xml version="1.0" encoding="utf-8"?>
<svg fill="#ffff" version="1.1" id="Layer_1" xmlns="http://www.w3.org/2000/svg" xmlns:xlink="http://www.w3.org/1999/xlink" x="0px" y="0px"
	 width="500px" height="200px" viewBox="0 0 500 200" enable-background="new 0 0 500 200" xml:space="preserve">
<g>
	<path d="M155.563,35.344c0.453-0.079,0.681-0.119,0.681-0.119s0.197,0.139,0.592,0.414c0.394,0.277,0.621,0.651,0.68,1.125
		c0.059,0.473-0.05,0.908-0.325,1.302c-1.105,1.46-2.899,4.319-5.385,8.58c-2.485,4.26-5.473,9.625-8.964,16.094
		c-3.491,6.47-7.071,13.501-10.74,21.094c-3.668,7.594-7.219,15.493-10.65,23.697c-3.432,8.205-6.341,16.143-8.728,23.816
		c-2.387,7.672-4.053,14.822-5,21.449s-0.769,12.189,0.533,16.686c0.118,0.434,0.068,0.857-0.148,1.271
		c-0.217,0.414-0.562,0.701-1.036,0.859c-0.158,0.039-0.316,0.059-0.473,0.059c-0.868,0-1.42-0.414-1.657-1.242
		c-0.592-2.131-0.957-4.537-1.095-7.219c-0.139-2.684-0.04-5.523,0.296-8.521c0.334-2.998,0.828-6.123,1.479-9.379
		c0.651-3.254,1.479-6.627,2.485-10.117s2.08-6.953,3.225-10.385c1.144-3.432,2.416-6.951,3.816-10.561
		c1.4-3.609,2.781-7.022,4.142-10.237c1.361-3.214,2.771-6.479,4.23-9.792c1.577-3.432,3.234-6.982,4.97-10.651
		c-2.604,3.905-4.97,7.417-7.1,10.532c-7.535,10.926-14.063,19.92-19.585,26.982c-3.827,4.891-7.396,9.17-10.71,12.84
		c-4.26,4.693-8.284,8.578-12.07,11.656c-1.026,0.789-1.815,1.381-2.367,1.775c-0.553,0.393-1.322,0.867-2.308,1.42
		c-0.986,0.551-1.933,0.984-2.84,1.301c-1.854,0.592-3.531,0.572-5.029-0.059c-1.46-0.592-2.703-1.736-3.728-3.432
		c-1.183-2.131-1.874-5.07-2.071-8.816c-0.08-2.525,0.079-5.385,0.473-8.58c0.552-4.734,1.617-10.256,3.195-16.568
		c1.262-4.891,2.82-10.256,4.674-16.093c2.958-9.23,6.765-19.704,11.42-31.419c1.617-4.102,3.747-9.25,6.391-15.443
		c0.197-0.434,0.887-1.972,2.071-4.615c-1.775,2.564-3.136,4.556-4.083,5.976C81.354,56.311,77.921,61.636,74.529,67
		c-6.035,9.547-12.722,20.315-20.059,32.307l-19.822,32.484c-0.158,0.275-3.453,5.699-9.882,16.271
		c-4.26,6.943-7.574,12.346-9.94,16.213c-0.039,0-0.059,0.02-0.059,0.059c-0.039,0.039-0.079,0.08-0.118,0.119
		c-0.079,0.078-0.157,0.156-0.237,0.236c-0.039,0.039-0.098,0.078-0.178,0.119c-0.079,0.039-0.157,0.078-0.236,0.117
		c-0.079,0.039-0.157,0.061-0.237,0.061c-0.079,0.037-0.178,0.059-0.296,0.059c-0.079,0-0.127,0-0.148,0c-0.02,0-0.039,0-0.059,0
		c-0.02,0-0.049,0-0.089,0c-0.039,0-0.098,0-0.177,0c0-0.039-0.06-0.059-0.178-0.059c-0.473-0.158-0.808-0.445-1.006-0.859
		c-0.197-0.414-0.237-0.857-0.118-1.33c1.263-3.709,3.777-9.398,7.544-17.07c3.767-7.674,8.55-16.717,14.349-27.131
		c5.799-10.414,13.007-22.415,21.627-36.004c8.618-13.589,17.623-26.912,27.011-39.969c0.276-0.394,0.651-0.631,1.125-0.71
		c0.473-0.079,0.896,0.02,1.272,0.295c0.375,0.277,0.601,0.651,0.681,1.125c0.079,0.473-0.021,0.908-0.296,1.302
		C73.444,60.689,62.695,76.813,52.755,93.005c-9.941,16.192-18.383,30.917-25.325,44.17c1.813-2.998,3.293-5.365,4.438-7.1
		l20.354-32.13c8.166-12.741,15.049-23.411,20.65-32.011c4.654-7.139,8.145-12.445,10.473-15.917
		c1.814-2.722,3.609-5.345,5.384-7.87l2.781-3.905c0.275-0.394,0.71-1.065,1.302-2.012l0.355-0.71c0-0.039,0.02-0.098,0.059-0.177
		c0.039-0.079,0.079-0.157,0.118-0.237c0.039-0.079,0.079-0.157,0.119-0.237c0.039-0.079,0.079-0.157,0.118-0.237
		c0.039-0.079,0.059-0.157,0.059-0.236c0.119-0.197,0.256-0.375,0.414-0.533c0.237-0.473,0.592-0.789,1.065-0.947
		c0.473-0.157,0.937-0.127,1.39,0.089c0.453,0.217,0.77,0.572,0.947,1.065c0.178,0.494,0.148,0.957-0.088,1.391
		c-0.158,0.355-0.415,0.631-0.77,0.828c-4.378,9.862-8.6,19.921-12.662,30.177c-4.418,11.124-8.186,21.538-11.302,31.242
		c-1.894,5.719-3.472,11.006-4.733,15.857c-1.578,6.115-2.663,11.479-3.254,16.094c-0.395,2.998-0.553,5.66-0.474,7.988
		c0.039,1.459,0.157,2.762,0.355,3.906c0.275,1.34,0.651,2.484,1.124,3.432c0.552,1.143,1.243,1.932,2.071,2.367
		c0.789,0.434,1.834,0.512,3.136,0.236c1.065-0.236,2.268-0.691,3.609-1.361c1.025-0.553,2.169-1.264,3.432-2.131
		c1.854-1.34,3.925-3.115,6.213-5.324c1.854-1.775,3.787-3.768,5.799-5.977c3.274-3.59,6.843-7.811,10.709-12.662
		c6.548-8.244,13.116-17.18,19.704-26.804c4.299-6.272,8.639-12.819,13.017-19.645c4.378-8.717,8.599-16.656,12.663-23.816
		c4.063-7.16,6.864-11.784,8.402-13.875C154.724,35.64,155.109,35.423,155.563,35.344z"/>
	<path d="M155.059,101.2c0,0,0.157,0.139,0.473,0.414c0.315,0.276,0.335,0.592,0.059,0.946c-2.525,2.604-4.911,4.832-7.159,6.688
		c-1.105,0.945-2.407,1.912-3.905,2.898c-0.71,0.473-1.44,0.906-2.189,1.303c-0.947,0.512-1.775,0.848-2.485,1.006
		c-0.513,0.117-1.026,0.137-1.538,0.059c-0.71-0.08-1.283-0.375-1.716-0.889c-0.236-0.275-0.414-0.553-0.532-0.828
		c-0.158-0.275-0.237-0.592-0.237-0.945c-0.04-0.553,0.02-1.086,0.178-1.598c0.315-1.184,0.966-2.645,1.953-4.379
		c-0.71,0.434-1.381,0.808-2.012,1.124c-0.79,0.354-1.519,0.651-2.189,0.888c-1.026,0.314-1.894,0.434-2.604,0.355
		c-0.75-0.08-1.341-0.365-1.775-0.859c-0.434-0.493-0.651-1.114-0.651-1.863c0-0.947,0.158-1.814,0.474-2.604
		c1.144-2.682,3.195-5.029,6.154-7.041c0.789-0.512,1.499-0.888,2.13-1.125c0.947-0.394,1.854-0.552,2.722-0.473
		c0.631,0.118,1.144,0.355,1.539,0.71c0.512,0.395,0.829,0.888,0.947,1.479c0.197,0.908,0.02,1.795-0.533,2.663
		c-0.276,0.355-0.591,0.414-0.946,0.177c-0.198-0.157-0.296-0.355-0.296-0.591c0.039-0.789-0.04-1.321-0.237-1.598
		c-0.08-0.079-0.178-0.138-0.296-0.178c-0.237-0.079-0.395-0.118-0.473-0.118c-0.553,0.08-1.026,0.217-1.42,0.414
		c-0.435,0.198-0.986,0.513-1.657,0.947c-1.104,0.79-2.091,1.657-2.958,2.604c-0.986,1.065-1.696,2.11-2.13,3.136
		c-0.198,0.434-0.316,0.967-0.355,1.598c0,0.039,0,0.078,0,0.119v0.059c0.039,0,0.079,0,0.118,0
		c0.355,0.078,0.888,0.039,1.598-0.119c0.592-0.157,1.222-0.375,1.894-0.65c1.42-0.631,2.642-1.263,3.668-1.893
		c0.828-0.554,1.518-1.045,2.071-1.48c0.039-0.038,0.068-0.068,0.089-0.088c0.02-0.02,0.029-0.049,0.029-0.089
		c0.434-0.592,0.927-1.243,1.479-1.953c0.71-0.867,1.262-1.499,1.657-1.894c0.237-0.275,0.533-0.414,0.888-0.414
		s0.651,0.118,0.887,0.355c0.276,0.236,0.424,0.513,0.444,0.828c0.02,0.316-0.069,0.612-0.266,0.888l-0.059,0.059
		c-0.435,0.513-0.908,1.125-1.42,1.834l-1.361,1.953c-0.75,0.984-1.637,2.287-2.663,3.904c-1.026,1.656-1.696,2.979-2.012,3.965
		c-0.08,0.275-0.118,0.553-0.118,0.828c0,0.078,0,0.139,0,0.178l0.059,0.178c0.079,0.117,0.197,0.217,0.355,0.295
		c0.237,0.08,0.512,0.098,0.828,0.061c1.223-0.08,2.643-0.572,4.26-1.48c1.065-0.592,2.367-1.459,3.905-2.604
		c2.446-1.854,4.753-4.063,6.923-6.627C154.92,101.378,155.059,101.2,155.059,101.2z"/>
	<path d="M179.999,101.645c0.334,0.256,0.364,0.541,0.088,0.857v0.059c-1.381,1.617-3.195,3.334-5.443,5.148
		c-1.815,1.42-3.827,2.879-6.036,4.379c-1.893,1.262-4.635,3.057-8.225,5.385c-1.065,1.971-2.13,3.885-3.195,5.738
		c-2.919,5.01-5.641,9.172-8.166,12.486c-1.972,2.523-3.708,4.416-5.207,5.68c-0.512,0.434-1.084,0.828-1.716,1.184
		c-0.749,0.434-1.479,0.709-2.189,0.828c-0.079,0-0.296,0-0.651,0c-0.275,0-0.512-0.021-0.71-0.059
		c-0.474-0.119-0.867-0.277-1.184-0.475c-0.828-0.434-1.38-1.123-1.657-2.07c-0.71-2.484-0.02-5.129,2.071-7.93
		c1.302-1.695,3.117-3.471,5.444-5.324c2.367-1.855,6.47-4.656,12.308-8.402c0.157-0.119,0.404-0.277,0.739-0.473
		c0.335-0.199,0.522-0.316,0.562-0.355c1.341-2.367,3.077-5.484,5.207-9.35l2.604-4.733c-0.04,0.039-0.128,0.138-0.266,0.296
		c-0.139,0.157-0.247,0.256-0.326,0.296c-1.42,1.341-2.84,2.405-4.26,3.195c-1.026,0.552-1.953,0.866-2.781,0.946
		c-0.75,0.078-1.401-0.039-1.953-0.355c-0.355-0.197-0.651-0.473-0.888-0.828c-0.157-0.275-0.296-0.592-0.414-0.946
		c-0.275-0.946-0.296-1.973-0.059-3.077c0.158-0.867,0.473-1.775,0.947-2.721c0.828-1.539,1.991-2.959,3.491-4.261
		c0.67-0.552,1.44-1.084,2.308-1.598c0.434-0.237,0.868-0.434,1.302-0.592c0.315-0.079,0.592-0.138,0.829-0.178
		c0.315-0.079,0.63-0.098,0.947-0.059c0.394,0.04,0.789,0.148,1.183,0.326c0.394,0.177,0.74,0.424,1.036,0.739
		c0.296,0.316,0.503,0.671,0.622,1.065c0.434,1.065,0.355,2.11-0.237,3.136c-0.198,0.355-0.494,0.435-0.888,0.237
		c-0.237-0.157-0.335-0.375-0.296-0.651v-0.059c0.039-0.71-0.099-1.282-0.414-1.716c-0.316-0.355-0.71-0.533-1.184-0.533
		c-0.355-0.039-0.887,0.158-1.598,0.592c-0.513,0.316-1.124,0.769-1.834,1.361c-1.223,1.105-2.189,2.268-2.899,3.491
		c-0.79,1.42-1.045,2.701-0.769,3.846c0.039,0.158,0.059,0.257,0.059,0.297c0.039,0.078,0.197,0.098,0.473,0.059
		c0.512,0,1.163-0.197,1.953-0.592c1.184-0.553,2.505-1.439,3.964-2.662c1.184-0.986,2.347-2.109,3.491-3.373
		c1.104-1.262,2.09-2.563,2.958-3.905c0.157-0.236,0.375-0.334,0.651-0.296c0.118,0,0.216,0.021,0.296,0.06
		c0.315,0.198,0.394,0.473,0.237,0.828c-2.446,6.035-5.385,12.308-8.816,18.815c2.604-1.656,4.753-3.076,6.449-4.26
		c2.485-1.697,4.477-3.136,5.977-4.319c2.248-1.854,3.964-3.55,5.147-5.089C179.357,101.418,179.663,101.388,179.999,101.645z
		 M154.821,121.791c0.079-0.158,0.197-0.375,0.355-0.65c0.157-0.277,0.256-0.453,0.296-0.533c-2.208,1.459-4.003,2.701-5.384,3.729
		c-2.445,1.734-4.358,3.234-5.74,4.496c-2.13,1.895-3.747,3.648-4.852,5.268c-0.789,1.143-1.282,2.129-1.479,2.957
		c-0.315,1.223-0.334,2.189-0.059,2.9c0.158,0.355,0.375,0.592,0.651,0.709c0.08,0.08,0.237,0.139,0.473,0.178l0.237,0.061
		c0.04-0.041,0.118-0.061,0.237-0.061c0.71-0.117,1.578-0.611,2.604-1.479c1.341-1.145,2.899-2.9,4.674-5.266
		c1.223-1.658,2.604-3.67,4.142-6.037C152.238,126.09,153.52,124,154.821,121.791z"/>
	<path d="M204.168,101.555c0,0,0.127,0.178,0.384,0.533c0.256,0.355,0.208,0.65-0.147,0.888v0.06
		c-3.393,2.248-6.509,4.141-9.349,5.68c-2.091,1.064-3.787,1.795-5.088,2.189c-1.105,0.314-2.091,0.473-2.958,0.473
		c-0.632-0.039-1.184-0.158-1.657-0.354c-0.079-0.041-0.217-0.119-0.414-0.238c-0.237-0.158-0.435-0.336-0.592-0.531
		c-0.236-0.395-0.335-0.85-0.295-1.361c0.078-0.435,0.256-0.986,0.532-1.656c0.157-0.355,0.394-0.77,0.71-1.243l1.302-2.13
		c-0.118,0.039-0.198,0.078-0.236,0.118c-0.316,0.157-0.671,0.354-1.065,0.591c-0.908,0.513-2.367,1.519-4.378,3.019l-2.189,1.597
		c-0.434,0.355-0.808,0.611-1.124,0.77c-0.275,0.197-0.493,0.336-0.651,0.414c-0.197,0.078-0.335,0.119-0.414,0.119
		c-0.276,0.078-0.512,0.098-0.71,0.059c-0.078,0-0.138,0-0.177,0c-0.237,0-0.434-0.059-0.592-0.178
		c-0.157-0.117-0.286-0.266-0.385-0.443c-0.098-0.178-0.148-0.365-0.148-0.563c0.04-0.867,0.336-1.893,0.888-3.076
		c0.355-0.789,0.809-1.598,1.361-2.426c0.474-0.75,0.987-1.5,1.539-2.249c0.592-0.789,1.144-1.518,1.657-2.189
		c0.237-0.276,0.533-0.434,0.888-0.474c0.355-0.039,0.67,0.059,0.947,0.296c0.275,0.237,0.434,0.523,0.473,0.858
		c0.039,0.336-0.059,0.642-0.296,0.918v0.059h-0.059c-0.513,0.631-1.045,1.302-1.598,2.012c-0.553,0.71-1.065,1.4-1.539,2.07
		c-0.473,0.75-0.887,1.48-1.242,2.189c-0.315,0.513-0.533,1.006-0.651,1.479c0.316-0.197,0.651-0.434,1.006-0.709
		c0.671-0.553,1.361-1.145,2.071-1.775c0.079-0.079,0.237-0.227,0.474-0.443c0.236-0.217,0.414-0.365,0.532-0.443
		c0.118-0.08,0.286-0.218,0.503-0.414c0.216-0.198,0.394-0.355,0.533-0.475c0.138-0.117,0.305-0.266,0.503-0.443
		c0.197-0.178,0.375-0.325,0.532-0.443c0.157-0.119,0.335-0.258,0.533-0.414c0.197-0.158,0.394-0.296,0.592-0.414
		c1.104-0.789,2.031-1.262,2.781-1.42c0.197-0.039,0.375-0.06,0.533-0.06c0.237,0,0.453,0.021,0.651,0.06
		c0.394,0.117,0.689,0.335,0.888,0.65c0.197,0.275,0.296,0.611,0.296,1.006c0,0.275-0.08,0.631-0.237,1.064
		c-0.119,0.197-0.237,0.434-0.355,0.711c-0.158,0.275-0.651,1.045-1.479,2.307c-0.276,0.434-0.494,0.789-0.651,1.066
		c-0.198,0.354-0.335,0.65-0.414,0.887h0.059c0.197,0.119,0.493,0.197,0.888,0.236c0.71,0.078,1.518,0.02,2.426-0.178
		c1.499-0.355,3.136-0.927,4.911-1.715c3.313-1.539,6.37-3.373,9.171-5.504C203.991,101.693,204.168,101.555,204.168,101.555z"/>
	<path d="M229.315,101.2c0,0,0.178,0.128,0.533,0.385s0.414,0.542,0.177,0.858c0,0.038-0.02,0.059-0.059,0.059
		c-0.631,0.749-1.933,2.031-3.905,3.846c-0.986,0.867-2.406,2.012-4.26,3.432c-1.618,1.262-3.116,2.287-4.497,3.078
		c-1.933,1.143-3.63,1.932-5.089,2.365c-1.183,0.316-2.229,0.375-3.136,0.178l-0.415-0.178c-0.118-0.039-0.316-0.117-0.591-0.236
		c-0.198-0.197-0.355-0.375-0.474-0.531c-0.158-0.238-0.257-0.414-0.296-0.533c-0.198-0.553-0.257-1.164-0.177-1.834
		c0.079-0.789,0.315-1.756,0.71-2.9c0.237-0.631,0.611-1.479,1.124-2.543c0.039-0.08,0.276-0.514,0.71-1.303
		c-1.5,1.459-2.899,2.623-4.201,3.49c-0.671,0.475-1.283,0.809-1.834,1.008c-0.434,0.156-0.848,0.236-1.243,0.236
		c-0.197-0.041-0.334-0.061-0.414-0.061c-0.118-0.039-0.256-0.078-0.414-0.117c-0.275-0.158-0.512-0.336-0.71-0.533
		c-0.355-0.395-0.552-0.887-0.592-1.479c0-0.395,0.04-0.79,0.118-1.184c0.119-0.592,0.335-1.242,0.651-1.953
		c0.631-1.459,1.854-3.629,3.668-6.508c0.197-0.315,0.474-0.512,0.829-0.592c0.355-0.079,0.68-0.019,0.976,0.178
		c0.296,0.198,0.483,0.464,0.563,0.799c0.078,0.335,0.019,0.661-0.178,0.976l-0.059,0.059c-1.854,2.643-3.117,4.635-3.787,5.977
		c-0.275,0.591-0.453,1.104-0.532,1.537c-0.119,0.316-0.157,0.592-0.119,0.829h0.059c0.158,0,0.336-0.04,0.533-0.118
		c0.394-0.119,0.867-0.336,1.42-0.65c1.578-0.987,3.432-2.467,5.562-4.438c0.867-0.867,1.696-1.735,2.485-2.604
		c1.025-1.104,1.775-2.012,2.249-2.722c0.197-0.315,0.453-0.394,0.769-0.237c0.118,0,0.216,0.04,0.296,0.118
		c0.275,0.198,0.355,0.454,0.237,0.77c-0.553,1.183-1.371,2.84-2.456,4.97c-1.085,2.13-1.845,3.668-2.278,4.615
		c-0.947,2.012-1.519,3.57-1.716,4.674c-0.08,0.355-0.099,0.611-0.059,0.77c0,0.039-0.021,0.059-0.059,0.059l0.059,0.061
		l0.177,0.059c0.592,0.236,1.321,0.295,2.189,0.178c1.42-0.197,3.037-0.77,4.852-1.717c1.34-0.75,2.82-1.715,4.438-2.898
		c1.184-0.828,2.564-1.953,4.142-3.373c0.63-0.553,1.281-1.164,1.953-1.834c0.829-0.828,1.4-1.46,1.716-1.894v-0.06
		C229.197,101.378,229.315,101.2,229.315,101.2z"/>
	<path d="M249.817,101.645c0.335,0.256,0.364,0.541,0.089,0.857v0.059c-1.854,2.131-4.615,3.945-8.284,5.444
		c-1.578,0.63-4.379,1.538-8.402,2.722c0.197,0.947,0.275,1.854,0.236,2.723c-0.158,2.012-0.769,3.766-1.834,5.266
		c-0.592,0.828-1.302,1.498-2.13,2.012c-0.828,0.512-1.775,0.848-2.84,1.006c-0.157,0.039-0.394,0.059-0.71,0.059
		c-0.434,0-0.689,0-0.769,0c-0.552-0.039-1.084-0.178-1.598-0.414c-1.065-0.473-1.854-1.203-2.367-2.189
		c-0.237-0.553-0.375-1.084-0.414-1.598c0-0.67,0.08-1.203,0.236-1.598c0.277-0.908,0.849-1.695,1.716-2.367
		c0.553-0.434,1.282-0.887,2.189-1.359c0.632-0.316,1.42-0.633,2.367-0.947c0.75-0.277,1.716-0.572,2.899-0.887
		c-0.118-0.514-0.236-0.969-0.355-1.361c-0.118-0.277-0.287-0.75-0.503-1.42c-0.217-0.672-0.404-1.273-0.562-1.805
		c-0.157-0.533-0.315-1.057-0.473-1.568c-0.434-1.855-0.512-3.629-0.237-5.326c0.355-2.249,1.34-3.905,2.958-4.97
		c1.025-0.63,2.071-0.888,3.136-0.769c0.552,0.08,1.084,0.257,1.597,0.532c0.474,0.277,0.887,0.691,1.243,1.243
		c0.513,0.868,0.651,1.874,0.414,3.018c-0.197,0.987-0.611,1.834-1.242,2.544c-0.277,0.316-0.572,0.335-0.888,0.059
		c-0.237-0.236-0.296-0.493-0.178-0.769V99.78c0.355-0.71,0.533-1.361,0.533-1.953c0-0.71-0.158-1.262-0.473-1.657
		c-0.316-0.355-0.73-0.533-1.243-0.533c-0.513,0-1.006,0.158-1.479,0.474c-0.986,0.671-1.559,1.755-1.716,3.254
		c-0.198,1.301-0.099,2.722,0.296,4.261c0.079,0.314,0.571,1.834,1.479,4.555c0.157,0.395,0.315,0.889,0.474,1.48
		c3.471-0.908,6.213-1.775,8.225-2.604c3.432-1.382,5.995-3.156,7.692-5.326C249.176,101.418,249.481,101.388,249.817,101.645z
		 M226.297,119.07c1.223-0.158,2.229-0.799,3.018-1.924s1.222-2.416,1.302-3.875c0-0.514-0.059-1.105-0.178-1.775
		c-1.105,0.355-2.012,0.67-2.722,0.947c-0.907,0.314-1.637,0.629-2.189,0.945c-0.749,0.395-1.34,0.828-1.775,1.303
		c-0.434,0.512-0.681,1.094-0.74,1.746c-0.059,0.65,0.069,1.172,0.385,1.566c0.316,0.434,0.73,0.77,1.242,1.006
		c0.237,0.08,0.474,0.139,0.71,0.178l0.473-0.059C226.021,119.129,226.179,119.109,226.297,119.07z"/>
</g>
<g>
	<path d="M313.486,70.111c0.157,0.158,0.236,0.336,0.236,0.532c1.695-1.38,3.393-2.918,5.089-4.615
		c3.983-4.102,7.593-8.658,10.828-13.668c1.932-3.037,3.293-5.562,4.083-7.574c0.552-1.458,0.808-2.741,0.769-3.846
		c0-1.38-0.395-2.485-1.184-3.313c-0.828-0.907-1.893-1.38-3.194-1.42c-1.105-0.039-2.407,0.197-3.905,0.71
		c-1.184,0.395-2.506,0.928-3.965,1.598c-1.104,0.513-2.387,1.204-3.846,2.071c-2.21,1.263-4.636,2.82-7.278,4.674
		c-2.17,1.5-4.556,3.195-7.159,5.089c-4.497,3.354-9.073,7.002-13.728,10.946c-9.152,7.811-17.594,15.917-25.325,24.319
		c-4.182,4.536-7.987,8.974-11.42,13.313c-4.182,5.443-7.337,10.256-9.467,14.438c-1.5,2.919-2.485,5.522-2.959,7.811
		c-0.118,0.552-0.197,1.203-0.236,1.953l-0.06,0.946c0.039,0.355,0.079,0.611,0.119,0.77c0.196,0.906,0.749,1.558,1.656,1.952
		c0.907,0.394,2.11,0.571,3.609,0.532c1.184-0.039,2.563-0.217,4.142-0.532c2.406-0.474,5.148-1.263,8.226-2.366
		c4.852-1.697,10.196-3.985,16.034-6.864c4.971-2.446,10.118-5.228,15.443-8.343c4.853-2.88,9.369-5.759,13.551-8.639
		c0.906-0.947,1.538-1.577,1.893-1.894c1.735-1.695,3.027-2.938,3.876-3.728c0.848-0.789,2.051-1.814,3.609-3.077
		c1.558-1.262,3.048-2.308,4.468-3.136c0.038,0,0.078-0.039,0.118-0.118c0.039-0.079,0.078-0.138,0.118-0.178v-0.06
		c0.157-0.236,0.394-0.394,0.71-0.473c0.315-0.079,0.602-0.03,0.858,0.147c0.256,0.178,0.423,0.414,0.503,0.71
		c0.078,0.296,0.038,0.583-0.118,0.858c-0.632,1.026-1.598,2.248-2.899,3.668c-0.987,0.987-2.092,2.012-3.313,3.077
		c-2.052,1.814-4.379,3.688-6.982,5.621l-0.06,0.059c-3.156,3.511-6.292,7.08-9.407,10.71c-4.773,5.601-10.1,12.071-15.977,19.408
		c10.493-4.655,18.244-8.245,23.254-10.77c5.167-2.604,9.861-5.207,14.083-7.81c2.76-1.697,4.989-3.176,6.686-4.438
		c2.367-1.736,4.418-3.432,6.154-5.088c0.434-0.395,0.848-0.385,1.242,0.029c0.394,0.414,0.374,0.818-0.06,1.213v0.059
		c-3.393,3.077-7.791,6.252-13.194,9.527c-4.34,2.563-9.112,5.127-14.319,7.691c-5.089,2.524-13.63,6.45-25.621,11.775
		c-0.118,0.157-0.503,0.65-1.153,1.479c-0.651,0.829-1.154,1.459-1.509,1.894l-19.94,25.443l-10,12.78
		c-1.064,1.341-1.913,2.387-2.544,3.137c-1.065,1.302-2.229,2.287-3.491,2.958c-1.775,0.907-3.432,1.065-4.97,0.474
		c-0.789-0.276-1.479-0.77-2.071-1.479c-0.474-0.592-0.867-1.263-1.184-2.012c-0.473-1.263-0.689-2.702-0.651-4.319
		c0.04-1.342,0.257-2.742,0.651-4.201c0.671-2.446,1.795-4.97,3.373-7.573c2.604-4.222,6.233-8.284,10.887-12.189
		c2.131-1.775,4.319-3.412,6.568-4.911c1.854-1.184,4.201-2.524,7.041-4.023c3.393-1.736,7.85-3.846,13.372-6.331l0.06-0.06
		c7.85-9.783,14.753-18.086,20.71-24.91c0.078-0.08,0.207-0.218,0.384-0.414c0.178-0.198,0.306-0.336,0.385-0.414
		c-1.223,0.788-2.387,1.518-3.491,2.188c-5.088,3.077-10.275,5.956-15.562,8.64c-6.114,3.076-11.559,5.463-16.331,7.159
		c-3.274,1.184-6.193,2.031-8.757,2.544c-1.736,0.315-3.294,0.513-4.675,0.592c-2.012,0.039-3.688-0.217-5.029-0.769
		c-1.026-0.396-1.854-0.968-2.485-1.717c-0.671-0.789-1.105-1.716-1.302-2.78c-0.08-0.355-0.139-0.81-0.178-1.361v-1.302
		c0.079-0.908,0.178-1.716,0.296-2.426c0.552-2.604,1.637-5.503,3.254-8.698c2.209-4.418,5.482-9.446,9.822-15.088
		c3.313-4.299,7.159-8.816,11.538-13.55c7.889-8.441,16.488-16.606,25.798-24.496c4.734-3.984,9.388-7.672,13.965-11.065
		c5.049-3.707,10.098-6.843,15.147-9.408c3.353-1.656,6.153-2.819,8.402-3.49c1.774-0.513,3.352-0.749,4.733-0.711
		c1.894,0.08,3.451,0.79,4.674,2.131c0.631,0.631,1.104,1.381,1.421,2.248c0.275,0.79,0.414,1.638,0.414,2.545
		c0,1.42-0.336,2.998-1.006,4.733c-0.908,2.248-2.328,4.911-4.261,7.987c-3.393,5.325-7.062,10-11.006,14.023
		c-2.288,2.328-4.556,4.319-6.804,5.977c-0.316,0.236-0.928,0.671-1.835,1.302l-0.946,0.592l-0.118,0.118
		c-0.08,0.04-0.139,0.079-0.178,0.118c-0.158,0.04-0.257,0.08-0.296,0.118c-0.435,0.118-0.868-0.038-1.302-0.473
		c-0.276-0.434-0.336-0.749-0.178-0.947c0.039-0.078,0.079-0.157,0.118-0.236c0.039-0.157,0.157-0.375,0.355-0.651
		c0.354-0.512,0.848-1.124,1.479-1.834c0.434-0.513,0.926-1.045,1.479-1.598C312.677,69.718,313.091,69.718,313.486,70.111z
		 M253.665,160.938c7.612-9.941,13.648-17.673,18.106-23.195c-4.458,2.012-8.106,3.767-10.946,5.267
		c-2.841,1.459-5.148,2.8-6.924,4.023c-2.209,1.459-4.339,3.077-6.39,4.852c-4.497,3.826-7.988,7.79-10.473,11.894
		c-0.71,1.184-1.332,2.376-1.864,3.58c-0.532,1.202-0.956,2.396-1.272,3.579c-0.749,2.998-0.749,5.482,0,7.456
		c0.237,0.552,0.553,1.015,0.947,1.391c0.395,0.374,0.828,0.581,1.302,0.621c0.828,0.118,1.735-0.218,2.722-1.006
		c0.789-0.632,1.617-1.46,2.485-2.485c0.592-0.71,1.421-1.756,2.485-3.136L253.665,160.938z"/>
	<path d="M348.691,103.838c0,0,0.187,0.099,0.563,0.296c0.374,0.198,0.463,0.474,0.266,0.828v0.06
		c-1.145,1.972-2.604,4.083-4.378,6.331c-1.974,2.367-3.709,4.24-5.207,5.621c-0.947,0.867-1.974,1.677-3.077,2.426
		c-1.42,0.986-2.644,1.617-3.668,1.894c-0.829,0.237-1.618,0.256-2.367,0.06c-0.907-0.198-1.637-0.671-2.189-1.42
		c-0.512-0.632-0.857-1.361-1.035-2.189s-0.207-1.618-0.089-2.367c0.04-0.118,0.099-0.316,0.178-0.592l0.118-0.532
		c0.236-0.553,0.354-0.868,0.354-0.946c0.237-0.592,0.572-1.224,1.006-1.894c0.198-0.355,0.435-0.71,0.71-1.065
		c0.277-0.354,0.583-0.73,0.918-1.124c0.335-0.395,0.562-0.69,0.68-0.888c0.197-0.276,0.335-0.494,0.415-0.65
		c0.118-0.119,0.196-0.258,0.236-0.415c-0.04-0.118-0.109-0.246-0.207-0.384c-0.099-0.139-0.207-0.267-0.325-0.385
		c-0.119-0.158-0.364-0.425-0.74-0.799c-0.374-0.376-0.71-0.75-1.006-1.124c-0.296-0.375-0.562-0.76-0.799-1.154
		c-0.474-0.789-0.689-1.558-0.65-2.308c0-0.906,0.197-1.695,0.592-2.366c0.473-0.829,1.124-1.381,1.952-1.657
		c1.025-0.315,1.933-0.178,2.722,0.414c0.671,0.553,1.095,1.263,1.272,2.13c0.178,0.868,0.128,1.638-0.148,2.308
		c-0.354,0.908-0.986,1.716-1.893,2.426c0.236,0.237,0.394,0.415,0.473,0.533c0.315,0.354,0.571,0.67,0.77,0.946
		c0.275,0.552,0.394,1.085,0.355,1.598c0,0.275-0.06,0.532-0.178,0.77c-0.08,0.275-0.158,0.474-0.237,0.592
		c-0.118,0.275-0.315,0.592-0.592,0.946c-0.197,0.275-0.453,0.611-0.769,1.006c-0.316,0.394-0.592,0.749-0.828,1.065
		c-0.237,0.315-0.434,0.63-0.592,0.946c-0.355,0.552-0.611,1.045-0.77,1.479c-0.039,0.078-0.068,0.157-0.089,0.236
		c-0.02,0.079-0.049,0.178-0.089,0.296c-0.039,0.119-0.078,0.197-0.118,0.237l-0.118,0.414c-0.039,0.196-0.06,0.315-0.06,0.354
		c-0.078,0.434-0.059,0.907,0.06,1.421c0.118,0.434,0.296,0.828,0.532,1.183c0.435,0.671,1.163,0.967,2.189,0.888
		c1.025-0.04,2.13-0.395,3.313-1.064c0.828-0.474,1.813-1.184,2.959-2.131c1.932-1.656,3.668-3.452,5.206-5.384
		c1.735-2.21,3.097-4.301,4.083-6.272C348.593,104.036,348.691,103.838,348.691,103.838z M330.526,101.058
		c0,0.395,0.139,0.809,0.414,1.242c0.198,0.316,0.514,0.69,0.947,1.124c0.71-0.631,1.163-1.302,1.36-2.012
		c0.118-0.474,0.118-0.926,0-1.36c-0.118-0.474-0.354-0.809-0.71-1.006c-0.276-0.157-0.592-0.178-0.946-0.06
		c-0.315,0.118-0.592,0.375-0.829,0.77C330.605,100.11,330.526,100.545,330.526,101.058z"/>
	<path d="M365.466,104.193c0.334,0.276,0.364,0.571,0.089,0.888c0,0.038-0.021,0.059-0.06,0.059
		c-0.474,0.474-1.598,1.459-3.373,2.959c-0.473,0.434-1.617,1.36-3.432,2.78c-2.564,1.973-5.069,3.609-7.515,4.911
		c-0.789,0.395-1.538,0.671-2.248,0.829c-0.434,0.118-0.888,0.157-1.361,0.118c-0.512,0-1.006-0.1-1.479-0.296
		c-0.591-0.198-1.044-0.592-1.36-1.184c-0.275-0.474-0.434-1.006-0.474-1.598c-0.039-0.789,0.099-1.656,0.414-2.604
		c0.396-1.263,1.046-2.683,1.953-4.26c0.474-0.79,1.263-2.032,2.366-3.729c0.197-0.314,0.464-0.503,0.799-0.562
		c0.335-0.06,0.66,0.01,0.977,0.207c0.275,0.158,0.453,0.405,0.532,0.739c0.079,0.336,0.039,0.642-0.118,0.917
		c-0.276,0.513-0.671,1.203-1.184,2.071c-0.513,0.867-0.849,1.439-1.006,1.716c-0.828,1.539-1.42,2.781-1.774,3.728
		c-0.237,0.631-0.355,1.184-0.355,1.657c0,0.236,0.021,0.404,0.06,0.503c0.039,0.098,0.118,0.187,0.236,0.267
		c0.671,0.434,1.815,0.394,3.432-0.119c1.144-0.354,2.427-0.946,3.847-1.774c1.064-0.672,2.268-1.479,3.609-2.426
		c0.867-0.632,1.991-1.539,3.372-2.723c0.474-0.395,1.025-0.868,1.657-1.42c0.71-0.71,1.184-1.222,1.42-1.538l0.06-0.06
		C364.824,103.937,365.13,103.918,365.466,104.193z M353.306,100.644c-0.236,0.473-0.572,0.395-1.006-0.237
		c-0.315-0.512-0.435-1.064-0.354-1.656c0.197-0.907,0.888-1.992,2.071-3.255c0.118-0.118,0.296-0.059,0.532,0.178
		s0.434,0.543,0.592,0.917c0.157,0.375,0.178,0.681,0.059,0.917c-0.079,0.316-0.384,0.858-0.917,1.627
		C353.75,99.903,353.425,100.406,353.306,100.644z"/>
	<path d="M401.381,104.312c0.257,0.354,0.227,0.65-0.088,0.888c0,0.038-0.021,0.059-0.06,0.059
		c-3.038,2.012-6.016,3.747-8.935,5.207c-2.012,0.985-3.649,1.657-4.911,2.012c-1.065,0.275-1.992,0.414-2.781,0.414
		c-0.592,0-1.104-0.079-1.538-0.236c-0.276-0.079-0.553-0.198-0.829-0.354c-0.395-0.237-0.671-0.592-0.828-1.065
		c-0.118-0.474-0.118-1.104,0-1.894c0.118-0.355,0.275-0.809,0.474-1.361l0.946-2.308c0.039-0.157,0.079-0.315,0.119-0.473
		c-0.396,0.078-0.85,0.236-1.361,0.473c-1.578,0.671-2.979,1.539-4.201,2.604c-1.499,1.223-2.683,2.406-3.55,3.551
		c-0.118,0.157-0.276,0.256-0.474,0.296c-0.276,0.236-0.572,0.256-0.888,0.059c-0.435-0.236-0.553-0.572-0.354-1.006
		c0.275-0.71,0.63-1.529,1.064-2.455c0.434-0.928,0.848-1.815,1.243-2.663c0.394-0.849,0.71-1.606,0.946-2.277
		s0.335-1.163,0.296-1.479c-0.04-0.118-0.079-0.197-0.118-0.237c-0.04-0.038-0.08-0.059-0.118-0.059l-0.06-0.06
		c-0.276-0.038-0.73,0.118-1.361,0.474c-0.395,0.198-0.927,0.532-1.597,1.006c-1.974,1.459-3.965,3.254-5.977,5.385
		c-0.79,0.867-1.676,1.912-2.663,3.136c-1.104,1.459-1.834,2.563-2.188,3.313c-0.039,0.118-0.139,0.217-0.296,0.296
		c-0.276,0.552-0.71,0.729-1.302,0.532c-0.197-0.079-0.364-0.188-0.503-0.325c-0.138-0.139-0.237-0.306-0.296-0.503
		c-0.06-0.198-0.05-0.395,0.029-0.592c0.513-1.775,1.381-3.768,2.604-5.976c0.474-0.908,1.006-1.835,1.598-2.781
		c0.631-0.986,1.223-1.873,1.775-2.663c0.196-0.275,0.473-0.443,0.828-0.503c0.354-0.059,0.681,0.011,0.977,0.207
		c0.295,0.198,0.473,0.474,0.532,0.829c0.059,0.354-0.029,0.671-0.267,0.946v0.06c-0.553,0.71-1.124,1.538-1.716,2.484
		c-0.513,0.749-1.006,1.559-1.479,2.427c0.355-0.435,0.809-1.006,1.361-1.717c2.405-2.919,4.299-4.989,5.681-6.213
		c0.591-0.512,1.202-0.946,1.834-1.301c0.354-0.197,0.71-0.375,1.064-0.533c0.513-0.196,1.007-0.296,1.479-0.296
		c0.355,0.04,0.66,0.129,0.917,0.267c0.257,0.139,0.503,0.307,0.74,0.503c0.434,0.395,0.689,0.908,0.769,1.538
		c0.079,0.672-0.039,1.52-0.354,2.545c-0.316,0.828-0.888,2.012-1.716,3.55c0.039-0.04,0.147-0.147,0.325-0.325
		s0.305-0.307,0.385-0.385c0.196-0.198,0.581-0.563,1.153-1.095c0.571-0.532,1.085-0.977,1.539-1.331
		c0.453-0.355,0.896-0.689,1.331-1.006c0.434-0.275,0.867-0.513,1.302-0.71c0.631-0.237,1.203-0.355,1.716-0.355
		c0.236,0.04,0.434,0.08,0.592,0.118c0.315,0.118,0.571,0.276,0.77,0.474c0.354,0.395,0.512,0.888,0.473,1.479
		c0,0.394-0.118,0.926-0.354,1.598c-0.158,0.354-0.376,0.818-0.651,1.391c-0.276,0.571-0.435,0.896-0.473,0.976
		c-0.158,0.434-0.276,0.789-0.355,1.065c-0.04,0.078-0.069,0.167-0.089,0.267c-0.021,0.098-0.04,0.187-0.059,0.266
		c-0.021,0.079-0.011,0.118,0.029,0.118c0.078,0.079,0.157,0.119,0.236,0.119c0.275,0.118,0.592,0.196,0.947,0.236
		c0.71,0.039,1.479-0.021,2.308-0.178c1.459-0.276,3.037-0.789,4.733-1.538c3.273-1.42,6.192-3.098,8.757-5.029h0.06
		C400.839,103.918,401.124,103.956,401.381,104.312z"/>
	<path d="M430.345,64.254c0.157,0.276,0.246,0.562,0.267,0.857c0.02,0.296-0.05,0.681-0.207,1.154
		c-0.119,0.395-0.198,0.69-0.237,0.888c-0.276,0.789-0.769,1.834-1.479,3.136c-0.513,0.907-1.085,1.854-1.716,2.84
		c-1.894,2.959-4.398,6.529-7.515,10.71c-2.524,3.432-5.188,6.903-7.987,10.414c-3.195,3.984-5.997,7.337-8.402,10.059
		c-0.079,0.079-0.178,0.139-0.296,0.178c-0.435,0.748-0.73,1.281-0.888,1.598c0.552-0.355,0.927-0.612,1.124-0.77
		c0.671-0.435,1.282-0.749,1.835-0.947c0.394-0.118,0.788-0.196,1.183-0.236c0.474-0.078,0.947-0.039,1.421,0.118
		c0.552,0.198,0.985,0.592,1.302,1.184c0.196,0.355,0.334,0.809,0.414,1.361c0.039,0.394,0.02,0.808-0.06,1.242
		c-0.079,0.434-0.158,0.789-0.236,1.065c-0.118,0.394-0.276,0.788-0.474,1.183c0.079,0,0.118-0.02,0.118-0.059
		c2.722-0.71,5.029-1.46,6.923-2.249c2.643-1.145,4.675-2.387,6.095-3.728c0.315-0.315,0.621-0.315,0.917,0
		c0.296,0.316,0.286,0.631-0.029,0.947c-1.657,1.459-3.827,2.741-6.509,3.846c-1.934,0.828-4.28,1.657-7.041,2.485
		c-0.198,0.039-0.444,0.098-0.74,0.178c-0.296,0.078-0.483,0.138-0.562,0.177c-0.237,0.315-0.454,0.611-0.651,0.888
		c-0.828,1.104-1.755,2.071-2.78,2.899c-1.224,0.947-2.446,1.617-3.669,2.012c-0.749,0.197-1.479,0.315-2.189,0.355
		c-0.078,0-0.275,0-0.592,0c-0.196,0-0.414-0.04-0.65-0.118c-0.552-0.158-1.006-0.396-1.361-0.71
		c-0.474-0.435-0.689-0.987-0.65-1.657c0.039-0.316,0.099-0.592,0.177-0.828c0.08-0.158,0.158-0.296,0.237-0.414
		c0.079-0.08,0.178-0.178,0.296-0.296c0.395-0.355,1.046-0.691,1.952-1.006c0.79-0.276,2.012-0.612,3.669-1.006
		c0-0.04,1.104-0.316,3.313-0.829c0.749-0.946,1.302-1.894,1.656-2.84c0.079-0.198,0.138-0.435,0.178-0.71
		c0.039-0.236,0.06-0.435,0.06-0.592c0-0.158-0.021-0.296-0.06-0.414c0-0.04-0.021-0.06-0.059-0.06
		c-0.119-0.197-0.474-0.236-1.065-0.118c-0.513,0.079-1.006,0.236-1.479,0.474c-0.907,0.434-1.834,1.124-2.781,2.07
		c-0.828,0.868-1.479,1.717-1.952,2.545l-0.06,0.059c-0.078,0.119-0.118,0.197-0.118,0.237c-0.236,0.275-0.532,0.434-0.888,0.474
		c-0.354,0.038-0.67-0.04-0.946-0.237c-0.513-0.435-0.631-0.967-0.355-1.598c3.077-6.547,7.356-14.18,12.84-22.898
		c2.367-3.787,4.793-7.435,7.278-10.946c3.313-4.694,5.996-8.185,8.047-10.474c0.395-0.473,0.789-0.887,1.184-1.242
		c0.67-0.592,1.203-1.006,1.598-1.242c0.118-0.039,0.236-0.079,0.355-0.118l0.177-0.06c0.119-0.039,0.217-0.06,0.296-0.06
		c0.118,0,0.275,0,0.474,0c0.157,0.04,0.315,0.08,0.474,0.119C429.871,63.701,430.146,63.938,430.345,64.254z M402.416,113.482
		c0.039-0.039,0.157-0.139,0.355-0.296c-0.553,0.119-0.908,0.217-1.065,0.296c-1.577,0.434-2.722,0.789-3.432,1.065
		c-0.71,0.275-1.144,0.512-1.302,0.71v0.06c0.04-0.04,0.06-0.04,0.06,0c0,0.038,0.021,0.078,0.059,0.118
		c0-0.04,0.021-0.069,0.06-0.089c0.04-0.021,0.079-0.029,0.118-0.029c0.08,0.118,0.385,0.157,0.917,0.118
		c0.533-0.04,1.017-0.139,1.45-0.296C400.542,114.784,401.47,114.231,402.416,113.482z M428.511,66.68
		c0.078-0.237,0.118-0.474,0.118-0.71c-0.198,0.158-0.454,0.395-0.77,0.71c-0.354,0.316-0.71,0.671-1.064,1.064
		c-1.974,2.249-4.557,5.701-7.752,10.355c-2.209,3.195-4.596,6.824-7.159,10.887c-1.973,3.156-4.023,6.568-6.153,10.236
		c4.181-4.93,8.401-10.314,12.662-16.153c2.997-4.221,5.403-7.811,7.219-10.769c0.592-0.985,1.144-1.933,1.656-2.84
		C427.859,68.277,428.273,67.351,428.511,66.68z M428.511,65.496l-0.06,0.118c0.039,0.04,0.098,0.099,0.178,0.178
		C428.589,65.635,428.549,65.536,428.511,65.496z"/>
	<path d="M443.303,103.779c0,0,0.157,0.147,0.473,0.443s0.335,0.601,0.06,0.917h-0.06c-0.513,0.513-1.4,1.203-2.662,2.071
		c-0.672,0.434-1.618,1.025-2.841,1.774c-1.578,0.986-3.511,2.051-5.798,3.195c-2.604,1.263-4.715,2.051-6.332,2.367
		c-0.671,0.118-1.302,0.157-1.893,0.118c-0.79-0.04-1.479-0.236-2.071-0.592c-0.749-0.395-1.302-0.986-1.657-1.774
		c-0.038-0.119-0.098-0.296-0.177-0.533l-0.119-0.473c0-0.08-0.059-0.396-0.177-0.947c-0.315-2.328,0.276-4.694,1.774-7.101
		c1.421-2.208,3.116-3.865,5.089-4.97c0.275-0.157,0.592-0.315,0.947-0.474c0.473-0.157,0.906-0.236,1.302-0.236
		c0.591,0.04,1.104,0.236,1.538,0.592c0.434,0.395,0.689,0.927,0.77,1.598c0.038,0.395-0.04,0.828-0.237,1.302
		c-0.118,0.315-0.316,0.631-0.592,0.946c-0.395,0.474-0.828,0.908-1.302,1.302c-1.578,1.263-3.491,2.109-5.739,2.544
		c-0.71,1.459-1.006,2.859-0.888,4.201c0.039,0.355,0.079,0.571,0.118,0.651l0.06,0.354l0.06,0.237
		c0.118,0.275,0.275,0.492,0.473,0.65c0.474,0.315,1.281,0.434,2.426,0.355c1.735-0.119,3.767-0.612,6.095-1.479
		c1.617-0.632,3.551-1.578,5.799-2.841c0.789-0.473,1.695-1.045,2.722-1.716c1.104-0.789,1.913-1.44,2.426-1.952v-0.06
		C443.164,103.937,443.303,103.779,443.303,103.779z M428.214,100.584c-1.499,0.946-2.781,2.248-3.846,3.905
		c1.498-0.434,2.701-1.282,3.609-2.545c0.354-0.433,0.611-0.828,0.769-1.183c0.119-0.237,0.197-0.395,0.237-0.474v-0.06
		C428.707,100.309,428.45,100.427,428.214,100.584z"/>
	<path d="M460.106,103.838c0,0,0.187,0.099,0.563,0.296c0.374,0.198,0.463,0.474,0.266,0.828v0.06
		c-1.145,1.972-2.604,4.083-4.378,6.331c-1.974,2.367-3.709,4.24-5.207,5.621c-0.947,0.867-1.974,1.677-3.077,2.426
		c-1.42,0.986-2.644,1.617-3.668,1.894c-0.829,0.237-1.618,0.256-2.367,0.06c-0.907-0.198-1.637-0.671-2.189-1.42
		c-0.512-0.632-0.857-1.361-1.035-2.189s-0.207-1.618-0.089-2.367c0.04-0.118,0.099-0.316,0.178-0.592l0.118-0.532
		c0.236-0.553,0.354-0.868,0.354-0.946c0.237-0.592,0.572-1.224,1.006-1.894c0.198-0.355,0.435-0.71,0.71-1.065
		c0.277-0.354,0.583-0.73,0.918-1.124c0.335-0.395,0.562-0.69,0.68-0.888c0.197-0.276,0.335-0.494,0.415-0.65
		c0.118-0.119,0.196-0.258,0.236-0.415c-0.04-0.118-0.109-0.246-0.207-0.384c-0.099-0.139-0.207-0.267-0.325-0.385
		c-0.119-0.158-0.364-0.425-0.74-0.799c-0.374-0.376-0.71-0.75-1.006-1.124c-0.296-0.375-0.562-0.76-0.799-1.154
		c-0.474-0.789-0.689-1.558-0.65-2.308c0-0.906,0.197-1.695,0.592-2.366c0.473-0.829,1.124-1.381,1.952-1.657
		c1.025-0.315,1.933-0.178,2.722,0.414c0.671,0.553,1.095,1.263,1.272,2.13c0.178,0.868,0.128,1.638-0.148,2.308
		c-0.354,0.908-0.986,1.716-1.893,2.426c0.236,0.237,0.394,0.415,0.473,0.533c0.315,0.354,0.571,0.67,0.77,0.946
		c0.275,0.552,0.394,1.085,0.355,1.598c0,0.275-0.06,0.532-0.178,0.77c-0.08,0.275-0.158,0.474-0.237,0.592
		c-0.118,0.275-0.315,0.592-0.592,0.946c-0.197,0.275-0.453,0.611-0.769,1.006c-0.316,0.394-0.592,0.749-0.828,1.065
		c-0.237,0.315-0.434,0.63-0.592,0.946c-0.355,0.552-0.611,1.045-0.77,1.479c-0.039,0.078-0.068,0.157-0.089,0.236
		c-0.02,0.079-0.049,0.178-0.089,0.296c-0.039,0.119-0.078,0.197-0.118,0.237l-0.118,0.414c-0.039,0.196-0.06,0.315-0.06,0.354
		c-0.078,0.434-0.059,0.907,0.06,1.421c0.118,0.434,0.296,0.828,0.532,1.183c0.435,0.671,1.163,0.967,2.189,0.888
		c1.025-0.04,2.13-0.395,3.313-1.064c0.828-0.474,1.813-1.184,2.959-2.131c1.932-1.656,3.668-3.452,5.206-5.384
		c1.735-2.21,3.097-4.301,4.083-6.272C460.008,104.036,460.106,103.838,460.106,103.838z M441.941,101.058
		c0,0.395,0.139,0.809,0.414,1.242c0.198,0.316,0.514,0.69,0.947,1.124c0.71-0.631,1.163-1.302,1.36-2.012
		c0.118-0.474,0.118-0.926,0-1.36c-0.118-0.474-0.354-0.809-0.71-1.006c-0.276-0.157-0.592-0.178-0.946-0.06
		c-0.315,0.118-0.592,0.375-0.829,0.77C442.021,100.11,441.941,100.545,441.941,101.058z"/>
	<path d="M485.756,104.223c0.335,0.257,0.364,0.542,0.089,0.858v0.059c-1.381,1.617-3.195,3.333-5.443,5.147
		c-1.815,1.421-3.827,2.88-6.035,4.379c-1.894,1.262-4.636,3.057-8.225,5.385c-1.065,1.972-2.131,3.885-3.195,5.739
		c-2.919,5.009-5.641,9.172-8.166,12.485c-1.972,2.523-3.707,4.417-5.207,5.68c-0.512,0.434-1.084,0.829-1.716,1.184
		c-0.749,0.434-1.479,0.71-2.189,0.828c-0.078,0-0.295,0-0.65,0c-0.275,0-0.513-0.021-0.71-0.059
		c-0.474-0.118-0.867-0.276-1.184-0.474c-0.828-0.435-1.38-1.124-1.656-2.071c-0.711-2.484-0.02-5.128,2.07-7.929
		c1.302-1.696,3.117-3.472,5.444-5.325c2.366-1.854,6.47-4.655,12.307-8.402c0.157-0.118,0.404-0.276,0.74-0.473
		c0.334-0.198,0.522-0.316,0.562-0.355c1.341-2.367,3.077-5.483,5.207-9.349l2.604-4.733c-0.04,0.038-0.128,0.138-0.267,0.296
		c-0.139,0.157-0.246,0.256-0.325,0.296c-1.42,1.34-2.84,2.405-4.26,3.194c-1.026,0.553-1.953,0.867-2.781,0.947
		c-0.75,0.078-1.4-0.04-1.952-0.355c-0.355-0.197-0.651-0.473-0.888-0.828c-0.157-0.276-0.296-0.592-0.414-0.946
		c-0.276-0.947-0.296-1.974-0.06-3.077c0.158-0.868,0.474-1.775,0.946-2.722c0.829-1.539,1.992-2.958,3.491-4.26
		c0.671-0.553,1.439-1.085,2.308-1.598c0.434-0.237,0.867-0.434,1.302-0.592c0.315-0.079,0.592-0.138,0.828-0.178
		c0.315-0.079,0.631-0.098,0.947-0.06c0.394,0.04,0.788,0.148,1.184,0.326c0.394,0.177,0.739,0.424,1.035,0.739
		c0.296,0.316,0.503,0.671,0.621,1.065c0.434,1.064,0.355,2.11-0.236,3.136c-0.198,0.354-0.494,0.435-0.888,0.236
		c-0.236-0.157-0.336-0.374-0.296-0.651v-0.059c0.039-0.71-0.099-1.281-0.414-1.716c-0.316-0.355-0.71-0.532-1.184-0.532
		c-0.354-0.039-0.888,0.158-1.598,0.592c-0.513,0.315-1.124,0.769-1.834,1.36c-1.224,1.104-2.189,2.269-2.899,3.491
		c-0.789,1.42-1.046,2.701-0.77,3.846c0.039,0.157,0.06,0.256,0.06,0.296c0.039,0.079,0.197,0.098,0.474,0.06
		c0.512,0,1.163-0.198,1.952-0.592c1.184-0.553,2.505-1.44,3.965-2.663c1.183-0.986,2.346-2.109,3.49-3.372
		c1.104-1.262,2.091-2.563,2.959-3.905c0.157-0.236,0.374-0.335,0.65-0.296c0.119,0,0.217,0.021,0.296,0.06
		c0.315,0.197,0.395,0.473,0.237,0.828c-2.446,6.035-5.385,12.307-8.816,18.815c2.604-1.656,4.753-3.076,6.449-4.26
		c2.485-1.697,4.477-3.137,5.977-4.319c2.248-1.855,3.964-3.551,5.147-5.089C485.114,103.996,485.421,103.967,485.756,104.223z
		 M460.579,124.37c0.079-0.158,0.197-0.375,0.355-0.651c0.157-0.276,0.256-0.453,0.296-0.532c-2.209,1.459-4.004,2.701-5.385,3.728
		c-2.445,1.735-4.358,3.234-5.739,4.497c-2.131,1.894-3.747,3.648-4.853,5.267c-0.788,1.144-1.281,2.13-1.479,2.958
		c-0.315,1.223-0.335,2.189-0.06,2.899c0.158,0.355,0.375,0.592,0.65,0.71c0.08,0.079,0.237,0.138,0.474,0.178l0.237,0.06
		c0.039-0.04,0.118-0.06,0.236-0.06c0.71-0.118,1.578-0.612,2.604-1.479c1.342-1.145,2.899-2.899,4.675-5.266
		c1.223-1.657,2.603-3.669,4.142-6.036C457.996,128.669,459.277,126.579,460.579,124.37z"/>
</g>
</svg>
